<svg width="166" height="169" viewBox="0 0 166 169" fill="none" xmlns="http://www.w3.org/2000/svg">
<path d="M41.0098 0L48.6727 90L83.0806 100L117.476 90.0062L125.151 0H41.0098Z" fill="#2196F3"/>
<path d="M108.767 29.4311L107.8 40.7374L104.879 74.6311L83.0802 80.8999L83.0622 80.9061L61.2755 74.6311L59.7549 56.9061H70.4289L71.2222 66.0999L83.0682 69.4249L83.0742 69.4186L94.9382 66.0936L96.5549 50.7749L59.2441 50.8811L58.1863 40.4061L97.4504 39.9249L98.2437 28.7124L57.1345 28.8311L56.4434 18.3999H83.0802H109.717L108.767 29.4311Z" fill="#FAFAFA"/>
<path d="M58.1349 152.144C56.4709 152.144 54.9669 151.776 53.6229 151.04C52.2949 150.304 51.2469 149.288 50.4789 147.992C49.7269 146.68 49.3509 145.216 49.3509 143.6C49.3509 141.984 49.7269 140.528 50.4789 139.232C51.2469 137.92 52.3029 136.896 53.6469 136.16C54.9909 135.424 56.4949 135.056 58.1589 135.056C59.4069 135.056 60.5589 135.264 61.6149 135.68C62.6709 136.096 63.5669 136.704 64.3029 137.504L63.1749 138.632C61.8629 137.304 60.2069 136.64 58.2069 136.64C56.8789 136.64 55.6709 136.944 54.5829 137.552C53.4949 138.16 52.6389 138.992 52.0149 140.048C51.4069 141.104 51.1029 142.288 51.1029 143.6C51.1029 144.912 51.4069 146.096 52.0149 147.152C52.6389 148.208 53.4949 149.04 54.5829 149.648C55.6709 150.256 56.8789 150.56 58.2069 150.56C60.2229 150.56 61.8789 149.888 63.1749 148.544L64.3029 149.672C63.5669 150.472 62.6629 151.088 61.5909 151.52C60.5349 151.936 59.3829 152.144 58.1349 152.144ZM75.8763 152.144C74.6283 152.144 73.4283 151.944 72.2763 151.544C71.1403 151.144 70.2603 150.616 69.6363 149.96L70.3323 148.592C70.9403 149.2 71.7483 149.696 72.7563 150.08C73.7643 150.448 74.8043 150.632 75.8763 150.632C77.3803 150.632 78.5083 150.36 79.2603 149.816C80.0123 149.256 80.3883 148.536 80.3883 147.656C80.3883 146.984 80.1803 146.448 79.7643 146.048C79.3643 145.648 78.8683 145.344 78.2763 145.136C77.6843 144.912 76.8603 144.672 75.8043 144.416C74.5403 144.096 73.5323 143.792 72.7803 143.504C72.0283 143.2 71.3803 142.744 70.8363 142.136C70.3083 141.528 70.0443 140.704 70.0443 139.664C70.0443 138.816 70.2683 138.048 70.7163 137.36C71.1643 136.656 71.8523 136.096 72.7803 135.68C73.7083 135.264 74.8603 135.056 76.2363 135.056C77.1963 135.056 78.1323 135.192 79.0443 135.464C79.9723 135.72 80.7723 136.08 81.4443 136.544L80.8443 137.96C80.1403 137.496 79.3883 137.152 78.5883 136.928C77.7883 136.688 77.0043 136.568 76.2363 136.568C74.7643 136.568 73.6523 136.856 72.9003 137.432C72.1643 137.992 71.7963 138.72 71.7963 139.616C71.7963 140.288 71.9963 140.832 72.3963 141.248C72.8123 141.648 73.3243 141.96 73.9323 142.184C74.5563 142.392 75.3883 142.624 76.4283 142.88C77.6603 143.184 78.6523 143.488 79.4043 143.792C80.1723 144.08 80.8203 144.528 81.3483 145.136C81.8763 145.728 82.1403 146.536 82.1403 147.56C82.1403 148.408 81.9083 149.184 81.4443 149.888C80.9963 150.576 80.3003 151.128 79.3563 151.544C78.4123 151.944 77.2523 152.144 75.8763 152.144ZM93.891 152.144C92.643 152.144 91.443 151.944 90.291 151.544C89.155 151.144 88.275 150.616 87.651 149.96L88.347 148.592C88.955 149.2 89.763 149.696 90.771 150.08C91.779 150.448 92.819 150.632 93.891 150.632C95.395 150.632 96.523 150.36 97.275 149.816C98.027 149.256 98.403 148.536 98.403 147.656C98.403 146.984 98.195 146.448 97.779 146.048C97.379 145.648 96.883 145.344 96.291 145.136C95.699 144.912 94.875 144.672 93.819 144.416C92.555 144.096 91.547 143.792 90.795 143.504C90.043 143.2 89.395 142.744 88.851 142.136C88.323 141.528 88.059 140.704 88.059 139.664C88.059 138.816 88.283 138.048 88.731 137.36C89.179 136.656 89.867 136.096 90.795 135.68C91.723 135.264 92.875 135.056 94.251 135.056C95.211 135.056 96.147 135.192 97.059 135.464C97.987 135.72 98.787 136.08 99.459 136.544L98.859 137.96C98.155 137.496 97.403 137.152 96.603 136.928C95.803 136.688 95.019 136.568 94.251 136.568C92.779 136.568 91.667 136.856 90.915 137.432C90.179 137.992 89.811 138.72 89.811 139.616C89.811 140.288 90.011 140.832 90.411 141.248C90.827 141.648 91.339 141.96 91.947 142.184C92.571 142.392 93.403 142.624 94.443 142.88C95.675 143.184 96.667 143.488 97.419 143.792C98.187 144.08 98.835 144.528 99.363 145.136C99.891 145.728 100.155 146.536 100.155 147.56C100.155 148.408 99.923 149.184 99.459 149.888C99.011 150.576 98.315 151.128 97.371 151.544C96.427 151.944 95.267 152.144 93.891 152.144ZM111.31 142.4C113.07 142.496 114.406 142.976 115.318 143.84C116.246 144.688 116.71 145.8 116.71 147.176C116.71 148.136 116.478 148.992 116.014 149.744C115.55 150.48 114.862 151.064 113.95 151.496C113.038 151.928 111.926 152.144 110.614 152.144C109.398 152.144 108.246 151.952 107.158 151.568C106.086 151.168 105.222 150.64 104.566 149.984L105.406 148.616C105.966 149.192 106.71 149.664 107.638 150.032C108.566 150.384 109.558 150.56 110.614 150.56C111.99 150.56 113.054 150.264 113.806 149.672C114.558 149.064 114.934 148.232 114.934 147.176C114.934 146.136 114.558 145.32 113.806 144.728C113.054 144.136 111.918 143.84 110.398 143.84H109.198V142.568L113.854 136.736H105.262V135.2H116.062V136.424L111.31 142.4Z" fill="black"/>
</svg>
