<svg width="240" height="187" viewBox="0 0 240 187" fill="none" xmlns="http://www.w3.org/2000/svg">
<g clip-path="url(#clip0_1_523)">
<path d="M98.3754 100C107.963 100 115.745 92.5337 115.745 83.3337V66.667H98.3754C88.7875 66.667 81.006 74.1337 81.006 83.3337C81.006 92.5337 88.7875 100 98.3754 100Z" fill="#0ACF83"/>
<path d="M81.006 49.9997C81.006 40.7997 88.7875 33.333 98.3754 33.333H115.745V66.6664H98.3754C88.7875 66.6664 81.006 59.1997 81.006 49.9997Z" fill="#A259FF"/>
<path d="M81.0039 16.6667C81.0039 7.46667 88.7854 0 98.3733 0H115.743V33.3333H98.3733C88.7854 33.3333 81.0039 25.8667 81.0039 16.6667Z" fill="#F24E1E"/>
<path d="M115.746 0H133.115C142.703 0 150.485 7.46667 150.485 16.6667C150.485 25.8667 142.703 33.3333 133.115 33.3333H115.746V0Z" fill="#FF7262"/>
<path d="M150.485 49.9997C150.485 59.1997 142.703 66.6664 133.115 66.6664C123.527 66.6664 115.746 59.1997 115.746 49.9997C115.746 40.7997 123.527 33.333 133.115 33.333C142.703 33.333 150.485 40.7997 150.485 49.9997Z" fill="#1ABCFE"/>
</g>
<path d="M77.4552 154.736V161.336H86.1432V162.872H77.4552V170H75.6792V153.2H87.1992V154.736H77.4552ZM94.1158 153.2H95.8918V170H94.1158V153.2ZM116.439 161.6H118.143V168.008C117.359 168.696 116.431 169.224 115.359 169.592C114.287 169.96 113.159 170.144 111.975 170.144C110.295 170.144 108.783 169.776 107.439 169.04C106.095 168.304 105.039 167.288 104.271 165.992C103.503 164.68 103.119 163.216 103.119 161.6C103.119 159.984 103.503 158.528 104.271 157.232C105.039 155.92 106.095 154.896 107.439 154.16C108.783 153.424 110.303 153.056 111.999 153.056C113.279 153.056 114.455 153.264 115.527 153.68C116.599 154.08 117.503 154.68 118.239 155.48L117.135 156.608C115.807 155.296 114.119 154.64 112.071 154.64C110.711 154.64 109.479 154.944 108.375 155.552C107.287 156.144 106.431 156.976 105.807 158.048C105.183 159.104 104.871 160.288 104.871 161.6C104.871 162.912 105.183 164.096 105.807 165.152C106.431 166.208 107.287 167.04 108.375 167.648C109.463 168.256 110.687 168.56 112.047 168.56C113.775 168.56 115.239 168.128 116.439 167.264V161.6ZM143.867 153.2V170H142.163V156.56L135.563 167.864H134.723L128.123 156.632V170H126.419V153.2H127.883L135.179 165.656L142.403 153.2H143.867ZM163.126 165.512H153.766L151.75 170H149.902L157.582 153.2H159.334L167.014 170H165.142L163.126 165.512ZM162.478 164.072L158.446 155.048L154.414 164.072H162.478Z" fill="black"/>
<defs>
<clipPath id="clip0_1_523">
<rect width="69.4915" height="100" fill="white" transform="translate(81)"/>
</clipPath>
</defs>
</svg>
