<svg width="240" height="174" viewBox="0 0 240 174" fill="none" xmlns="http://www.w3.org/2000/svg">
<path d="M63.4492 157V140.2H64.9132L76.5052 154.792H75.7372V140.2H77.4892V157H76.0252L64.4572 142.408H65.2252V157H63.4492ZM93.5657 157.144C92.3017 157.144 91.1257 156.936 90.0377 156.52C88.9657 156.088 88.0297 155.488 87.2297 154.72C86.4457 153.936 85.8297 153.032 85.3817 152.008C84.9497 150.968 84.7337 149.832 84.7337 148.6C84.7337 147.368 84.9497 146.24 85.3817 145.216C85.8297 144.176 86.4457 143.272 87.2297 142.504C88.0297 141.72 88.9657 141.12 90.0377 140.704C91.1097 140.272 92.2857 140.056 93.5657 140.056C94.8297 140.056 95.9977 140.272 97.0697 140.704C98.1417 141.12 99.0697 141.712 99.8537 142.48C100.654 143.248 101.27 144.152 101.702 145.192C102.15 146.232 102.374 147.368 102.374 148.6C102.374 149.832 102.15 150.968 101.702 152.008C101.27 153.048 100.654 153.952 99.8537 154.72C99.0697 155.488 98.1417 156.088 97.0697 156.52C95.9977 156.936 94.8297 157.144 93.5657 157.144ZM93.5657 155.56C94.5737 155.56 95.5017 155.392 96.3497 155.056C97.2137 154.704 97.9577 154.216 98.5817 153.592C99.2217 152.952 99.7177 152.216 100.07 151.384C100.422 150.536 100.598 149.608 100.598 148.6C100.598 147.592 100.422 146.672 100.07 145.84C99.7177 144.992 99.2217 144.256 98.5817 143.632C97.9577 142.992 97.2137 142.504 96.3497 142.168C95.5017 141.816 94.5737 141.64 93.5657 141.64C92.5577 141.64 91.6217 141.816 90.7577 142.168C89.8937 142.504 89.1417 142.992 88.5017 143.632C87.8777 144.256 87.3817 144.992 87.0137 145.84C86.6617 146.672 86.4857 147.592 86.4857 148.6C86.4857 149.592 86.6617 150.512 87.0137 151.36C87.3817 152.208 87.8777 152.952 88.5017 153.592C89.1417 154.216 89.8937 154.704 90.7577 155.056C91.6217 155.392 92.5577 155.56 93.5657 155.56ZM109.604 157V140.2H116.444C118.236 140.2 119.804 140.56 121.148 141.28C122.508 141.984 123.564 142.968 124.316 144.232C125.068 145.496 125.444 146.952 125.444 148.6C125.444 150.248 125.068 151.704 124.316 152.968C123.564 154.232 122.508 155.224 121.148 155.944C119.804 156.648 118.236 157 116.444 157H109.604ZM111.38 155.464H116.348C117.836 155.464 119.124 155.176 120.212 154.6C121.316 154.008 122.172 153.2 122.78 152.176C123.388 151.136 123.692 149.944 123.692 148.6C123.692 147.24 123.388 146.048 122.78 145.024C122.172 144 121.316 143.2 120.212 142.624C119.124 142.032 117.836 141.736 116.348 141.736H111.38V155.464ZM134.265 147.712H143.145V149.224H134.265V147.712ZM134.457 155.464H144.561V157H132.681V140.2H144.201V141.736H134.457V155.464ZM153.785 157.144C152.841 157.144 151.953 156.936 151.121 156.52C150.305 156.104 149.649 155.512 149.153 154.744L150.185 153.544C150.649 154.216 151.185 154.728 151.793 155.08C152.401 155.432 153.073 155.608 153.809 155.608C155.889 155.608 156.929 154.376 156.929 151.912V141.736H150.785V140.2H158.681V151.84C158.681 153.616 158.265 154.944 157.433 155.824C156.617 156.704 155.401 157.144 153.785 157.144ZM171.889 157.144C170.641 157.144 169.441 156.944 168.289 156.544C167.153 156.128 166.273 155.6 165.649 154.96L166.345 153.592C166.937 154.168 167.729 154.656 168.721 155.056C169.729 155.44 170.785 155.632 171.889 155.632C172.945 155.632 173.801 155.504 174.457 155.248C175.129 154.976 175.617 154.616 175.921 154.168C176.241 153.72 176.401 153.224 176.401 152.68C176.401 152.024 176.209 151.496 175.825 151.096C175.457 150.696 174.969 150.384 174.361 150.16C173.753 149.92 173.081 149.712 172.345 149.536C171.609 149.36 170.873 149.176 170.137 148.984C169.401 148.776 168.721 148.504 168.097 148.168C167.489 147.832 166.993 147.392 166.609 146.848C166.241 146.288 166.057 145.56 166.057 144.664C166.057 143.832 166.273 143.072 166.705 142.384C167.153 141.68 167.833 141.12 168.745 140.704C169.657 140.272 170.825 140.056 172.249 140.056C173.193 140.056 174.129 140.192 175.057 140.464C175.985 140.72 176.785 141.08 177.457 141.544L176.857 142.96C176.137 142.48 175.369 142.128 174.553 141.904C173.753 141.68 172.977 141.568 172.225 141.568C171.217 141.568 170.385 141.704 169.729 141.976C169.073 142.248 168.585 142.616 168.265 143.08C167.961 143.528 167.809 144.04 167.809 144.616C167.809 145.272 167.993 145.8 168.361 146.2C168.745 146.6 169.241 146.912 169.849 147.136C170.473 147.36 171.153 147.56 171.889 147.736C172.625 147.912 173.353 148.104 174.073 148.312C174.809 148.52 175.481 148.792 176.089 149.128C176.713 149.448 177.209 149.88 177.577 150.424C177.961 150.968 178.153 151.68 178.153 152.56C178.153 153.376 177.929 154.136 177.481 154.84C177.033 155.528 176.345 156.088 175.417 156.52C174.505 156.936 173.329 157.144 171.889 157.144Z" fill="black"/>
<path d="M121.739 99.8144C120.411 99.8144 119.173 99.4476 118.022 98.8057L106.254 91.5615C104.484 90.5528 105.369 90.186 105.9 90.0026C108.289 89.1774 108.731 88.9939 111.209 87.5268C111.474 87.3434 111.828 87.4351 112.094 87.6185L121.119 93.2121C121.473 93.3955 121.916 93.3955 122.181 93.2121L157.487 72.0296C157.841 71.8462 158.018 71.4794 158.018 71.0209V28.7477C158.018 28.2892 157.841 27.9224 157.487 27.739L122.181 6.64818C121.827 6.46479 121.385 6.46479 121.119 6.64818L85.8134 27.739C85.4595 27.9224 85.2825 28.3809 85.2825 28.7477V71.0209C85.2825 71.3877 85.4595 71.8462 85.8134 72.0296L95.4584 77.8067C100.679 80.5576 103.953 77.3482 103.953 74.1387V32.4156C103.953 31.8654 104.395 31.3152 105.015 31.3152H109.528C110.059 31.3152 110.589 31.7737 110.589 32.4156V74.1387C110.589 81.3829 106.785 85.6011 100.148 85.6011C98.1129 85.6011 96.5202 85.6011 92.0074 83.3086L82.7164 77.8067C80.4158 76.4312 79 73.8636 79 71.1126V28.8394C79 26.0884 80.4158 23.5208 82.7164 22.1453L118.022 0.96284C120.234 -0.320947 123.243 -0.320947 125.455 0.96284L160.761 22.1453C163.061 23.5208 164.477 26.0884 164.477 28.8394V71.1126C164.477 73.8636 163.061 76.4312 160.761 77.8067L125.455 98.9892C124.305 99.5393 122.977 99.8144 121.739 99.8144ZM132.622 70.7458C117.137 70.7458 113.952 63.4099 113.952 57.1744C113.952 56.6242 114.394 56.074 115.014 56.074H119.615C120.146 56.074 120.588 56.4408 120.588 56.991C121.296 61.851 123.331 64.2352 132.711 64.2352C140.144 64.2352 143.329 62.4929 143.329 58.3665C143.329 55.9823 142.444 54.24 130.853 53.0479C121.208 52.0392 115.191 49.8384 115.191 41.8606C115.191 34.433 121.208 30.0314 131.295 30.0314C142.621 30.0314 148.196 34.0662 148.904 42.8693C148.904 43.1444 148.815 43.4195 148.638 43.6946C148.461 43.878 148.196 44.0614 147.93 44.0614H143.329C142.887 44.0614 142.444 43.6946 142.356 43.2361C141.294 38.1927 138.551 36.5421 131.295 36.5421C123.154 36.5421 122.181 39.4765 122.181 41.6772C122.181 44.3365 123.331 45.1618 134.304 46.629C145.187 48.0962 150.32 50.2052 150.32 58.0914C150.231 66.1609 143.86 70.7458 132.622 70.7458Z" fill="#539E43"/>
</svg>
